<?xml version="1.0" encoding="utf-8" standalone="no"?>
<!DOCTYPE svg PUBLIC "-//W3C//DTD SVG 1.1//EN"
  "http://www.w3.org/Graphics/SVG/1.1/DTD/svg11.dtd">
<svg xmlns:xlink="http://www.w3.org/1999/xlink" width="768.943125pt" height="314.590125pt" viewBox="0 0 768.943125 314.590125" xmlns="http://www.w3.org/2000/svg" version="1.1">
 <metadata>
  <rdf:RDF xmlns:dc="http://purl.org/dc/elements/1.1/" xmlns:cc="http://creativecommons.org/ns#" xmlns:rdf="http://www.w3.org/1999/02/22-rdf-syntax-ns#">
   <cc:Work>
    <dc:type rdf:resource="http://purl.org/dc/dcmitype/StillImage"/>
    <dc:date>2025-12-09T08:19:44.205897</dc:date>
    <dc:format>image/svg+xml</dc:format>
    <dc:creator>
     <cc:Agent>
      <dc:title>Matplotlib v3.9.4, https://matplotlib.org/</dc:title>
     </cc:Agent>
    </dc:creator>
   </cc:Work>
  </rdf:RDF>
 </metadata>
 <defs>
  <style type="text/css">*{stroke-linejoin: round; stroke-linecap: butt}</style>
 </defs>
 <g id="figure_1">
  <g id="patch_1">
   <path d="M 0 314.590125 
L 768.943125 314.590125 
L 768.943125 0 
L 0 0 
z
" style="fill: #ffffff"/>
  </g>
  <g id="axes_1">
   <g id="patch_2">
    <path d="M 47.503125 273.312 
L 372.15767 273.312 
L 372.15767 7.2 
L 47.503125 7.2 
z
" style="fill: #ffffff"/>
   </g>
   <g id="PolyCollection_1"/>
   <g id="PolyCollection_2"/>
   <g id="PolyCollection_3"/>
   <g id="matplotlib.axis_1">
    <g id="xtick_1">
     <g id="line2d_1">
      <path d="M 62.26015 273.312 
L 62.26015 7.2 
" clip-path="url(#p26fa93a450)" style="fill: none; stroke: #b0b0b0; stroke-width: 0.8; stroke-linecap: square"/>
     </g>
     <g id="line2d_2">
      <defs>
       <path id="mca4d35a38b" d="M 0 0 
L 0 3.5 
" style="stroke: #000000; stroke-width: 0.8"/>
      </defs>
      <g>
       <use xlink:href="#mca4d35a38b" x="62.26015" y="273.312" style="stroke: #000000; stroke-width: 0.8"/>
      </g>
     </g>
     <g id="text_1">
      <!-- −10.0 -->
      <g transform="translate(46.937494 287.910437) scale(0.1 -0.1)">
       <defs>
        <path id="DejaVuSans-2212" d="M 678 2272 
L 4684 2272 
L 4684 1741 
L 678 1741 
L 678 2272 
z
" transform="scale(0.015625)"/>
        <path id="DejaVuSans-31" d="M 794 531 
L 1825 531 
L 1825 4091 
L 703 3866 
L 703 4441 
L 1819 4666 
L 2450 4666 
L 2450 531 
L 3481 531 
L 3481 0 
L 794 0 
L 794 531 
z
" transform="scale(0.015625)"/>
        <path id="DejaVuSans-30" d="M 2034 4250 
Q 1547 4250 1301 3770 
Q 1056 3291 1056 2328 
Q 1056 1369 1301 889 
Q 1547 409 2034 409 
Q 2525 409 2770 889 
Q 3016 1369 3016 2328 
Q 3016 3291 2770 3770 
Q 2525 4250 2034 4250 
z
M 2034 4750 
Q 2819 4750 3233 4129 
Q 3647 3509 3647 2328 
Q 3647 1150 3233 529 
Q 2819 -91 2034 -91 
Q 1250 -91 836 529 
Q 422 1150 422 2328 
Q 422 3509 836 4129 
Q 1250 4750 2034 4750 
z
" transform="scale(0.015625)"/>
        <path id="DejaVuSans-2e" d="M 684 794 
L 1344 794 
L 1344 0 
L 684 0 
L 684 794 
z
" transform="scale(0.015625)"/>
       </defs>
       <use xlink:href="#DejaVuSans-2212"/>
       <use xlink:href="#DejaVuSans-31" x="83.789062"/>
       <use xlink:href="#DejaVuSans-30" x="147.412109"/>
       <use xlink:href="#DejaVuSans-2e" x="211.035156"/>
       <use xlink:href="#DejaVuSans-30" x="242.822266"/>
      </g>
     </g>
    </g>
    <g id="xtick_2">
     <g id="line2d_3">
      <path d="M 99.338102 273.312 
L 99.338102 7.2 
" clip-path="url(#p26fa93a450)" style="fill: none; stroke: #b0b0b0; stroke-width: 0.8; stroke-linecap: square"/>
     </g>
     <g id="line2d_4">
      <g>
       <use xlink:href="#mca4d35a38b" x="99.338102" y="273.312" style="stroke: #000000; stroke-width: 0.8"/>
      </g>
     </g>
     <g id="text_2">
      <!-- −7.5 -->
      <g transform="translate(87.196696 287.910437) scale(0.1 -0.1)">
       <defs>
        <path id="DejaVuSans-37" d="M 525 4666 
L 3525 4666 
L 3525 4397 
L 1831 0 
L 1172 0 
L 2766 4134 
L 525 4134 
L 525 4666 
z
" transform="scale(0.015625)"/>
        <path id="DejaVuSans-35" d="M 691 4666 
L 3169 4666 
L 3169 4134 
L 1269 4134 
L 1269 2991 
Q 1406 3038 1543 3061 
Q 1681 3084 1819 3084 
Q 2600 3084 3056 2656 
Q 3513 2228 3513 1497 
Q 3513 744 3044 326 
Q 2575 -91 1722 -91 
Q 1428 -91 1123 -41 
Q 819 9 494 109 
L 494 744 
Q 775 591 1075 516 
Q 1375 441 1709 441 
Q 2250 441 2565 725 
Q 2881 1009 2881 1497 
Q 2881 1984 2565 2268 
Q 2250 2553 1709 2553 
Q 1456 2553 1204 2497 
Q 953 2441 691 2322 
L 691 4666 
z
" transform="scale(0.015625)"/>
       </defs>
       <use xlink:href="#DejaVuSans-2212"/>
       <use xlink:href="#DejaVuSans-37" x="83.789062"/>
       <use xlink:href="#DejaVuSans-2e" x="147.412109"/>
       <use xlink:href="#DejaVuSans-35" x="179.199219"/>
      </g>
     </g>
    </g>
    <g id="xtick_3">
     <g id="line2d_5">
      <path d="M 136.416055 273.312 
L 136.416055 7.2 
" clip-path="url(#p26fa93a450)" style="fill: none; stroke: #b0b0b0; stroke-width: 0.8; stroke-linecap: square"/>
     </g>
     <g id="line2d_6">
      <g>
       <use xlink:href="#mca4d35a38b" x="136.416055" y="273.312" style="stroke: #000000; stroke-width: 0.8"/>
      </g>
     </g>
     <g id="text_3">
      <!-- −5.0 -->
      <g transform="translate(124.274648 287.910437) scale(0.1 -0.1)">
       <use xlink:href="#DejaVuSans-2212"/>
       <use xlink:href="#DejaVuSans-35" x="83.789062"/>
       <use xlink:href="#DejaVuSans-2e" x="147.412109"/>
       <use xlink:href="#DejaVuSans-30" x="179.199219"/>
      </g>
     </g>
    </g>
    <g id="xtick_4">
     <g id="line2d_7">
      <path d="M 173.494007 273.312 
L 173.494007 7.2 
" clip-path="url(#p26fa93a450)" style="fill: none; stroke: #b0b0b0; stroke-width: 0.8; stroke-linecap: square"/>
     </g>
     <g id="line2d_8">
      <g>
       <use xlink:href="#mca4d35a38b" x="173.494007" y="273.312" style="stroke: #000000; stroke-width: 0.8"/>
      </g>
     </g>
     <g id="text_4">
      <!-- −2.5 -->
      <g transform="translate(161.352601 287.910437) scale(0.1 -0.1)">
       <defs>
        <path id="DejaVuSans-32" d="M 1228 531 
L 3431 531 
L 3431 0 
L 469 0 
L 469 531 
Q 828 903 1448 1529 
Q 2069 2156 2228 2338 
Q 2531 2678 2651 2914 
Q 2772 3150 2772 3378 
Q 2772 3750 2511 3984 
Q 2250 4219 1831 4219 
Q 1534 4219 1204 4116 
Q 875 4013 500 3803 
L 500 4441 
Q 881 4594 1212 4672 
Q 1544 4750 1819 4750 
Q 2544 4750 2975 4387 
Q 3406 4025 3406 3419 
Q 3406 3131 3298 2873 
Q 3191 2616 2906 2266 
Q 2828 2175 2409 1742 
Q 1991 1309 1228 531 
z
" transform="scale(0.015625)"/>
       </defs>
       <use xlink:href="#DejaVuSans-2212"/>
       <use xlink:href="#DejaVuSans-32" x="83.789062"/>
       <use xlink:href="#DejaVuSans-2e" x="147.412109"/>
       <use xlink:href="#DejaVuSans-35" x="179.199219"/>
      </g>
     </g>
    </g>
    <g id="xtick_5">
     <g id="line2d_9">
      <path d="M 210.57196 273.312 
L 210.57196 7.2 
" clip-path="url(#p26fa93a450)" style="fill: none; stroke: #b0b0b0; stroke-width: 0.8; stroke-linecap: square"/>
     </g>
     <g id="line2d_10">
      <g>
       <use xlink:href="#mca4d35a38b" x="210.57196" y="273.312" style="stroke: #000000; stroke-width: 0.8"/>
      </g>
     </g>
     <g id="text_5">
      <!-- 0.0 -->
      <g transform="translate(202.620397 287.910437) scale(0.1 -0.1)">
       <use xlink:href="#DejaVuSans-30"/>
       <use xlink:href="#DejaVuSans-2e" x="63.623047"/>
       <use xlink:href="#DejaVuSans-30" x="95.410156"/>
      </g>
     </g>
    </g>
    <g id="xtick_6">
     <g id="line2d_11">
      <path d="M 247.649912 273.312 
L 247.649912 7.2 
" clip-path="url(#p26fa93a450)" style="fill: none; stroke: #b0b0b0; stroke-width: 0.8; stroke-linecap: square"/>
     </g>
     <g id="line2d_12">
      <g>
       <use xlink:href="#mca4d35a38b" x="247.649912" y="273.312" style="stroke: #000000; stroke-width: 0.8"/>
      </g>
     </g>
     <g id="text_6">
      <!-- 2.5 -->
      <g transform="translate(239.69835 287.910437) scale(0.1 -0.1)">
       <use xlink:href="#DejaVuSans-32"/>
       <use xlink:href="#DejaVuSans-2e" x="63.623047"/>
       <use xlink:href="#DejaVuSans-35" x="95.410156"/>
      </g>
     </g>
    </g>
    <g id="xtick_7">
     <g id="line2d_13">
      <path d="M 284.727865 273.312 
L 284.727865 7.2 
" clip-path="url(#p26fa93a450)" style="fill: none; stroke: #b0b0b0; stroke-width: 0.8; stroke-linecap: square"/>
     </g>
     <g id="line2d_14">
      <g>
       <use xlink:href="#mca4d35a38b" x="284.727865" y="273.312" style="stroke: #000000; stroke-width: 0.8"/>
      </g>
     </g>
     <g id="text_7">
      <!-- 5.0 -->
      <g transform="translate(276.776302 287.910437) scale(0.1 -0.1)">
       <use xlink:href="#DejaVuSans-35"/>
       <use xlink:href="#DejaVuSans-2e" x="63.623047"/>
       <use xlink:href="#DejaVuSans-30" x="95.410156"/>
      </g>
     </g>
    </g>
    <g id="xtick_8">
     <g id="line2d_15">
      <path d="M 321.805817 273.312 
L 321.805817 7.2 
" clip-path="url(#p26fa93a450)" style="fill: none; stroke: #b0b0b0; stroke-width: 0.8; stroke-linecap: square"/>
     </g>
     <g id="line2d_16">
      <g>
       <use xlink:href="#mca4d35a38b" x="321.805817" y="273.312" style="stroke: #000000; stroke-width: 0.8"/>
      </g>
     </g>
     <g id="text_8">
      <!-- 7.5 -->
      <g transform="translate(313.854254 287.910437) scale(0.1 -0.1)">
       <use xlink:href="#DejaVuSans-37"/>
       <use xlink:href="#DejaVuSans-2e" x="63.623047"/>
       <use xlink:href="#DejaVuSans-35" x="95.410156"/>
      </g>
     </g>
    </g>
    <g id="xtick_9">
     <g id="line2d_17">
      <path d="M 358.883769 273.312 
L 358.883769 7.2 
" clip-path="url(#p26fa93a450)" style="fill: none; stroke: #b0b0b0; stroke-width: 0.8; stroke-linecap: square"/>
     </g>
     <g id="line2d_18">
      <g>
       <use xlink:href="#mca4d35a38b" x="358.883769" y="273.312" style="stroke: #000000; stroke-width: 0.8"/>
      </g>
     </g>
     <g id="text_9">
      <!-- 10.0 -->
      <g transform="translate(347.750957 287.910437) scale(0.1 -0.1)">
       <use xlink:href="#DejaVuSans-31"/>
       <use xlink:href="#DejaVuSans-30" x="63.623047"/>
       <use xlink:href="#DejaVuSans-2e" x="127.246094"/>
       <use xlink:href="#DejaVuSans-30" x="159.033203"/>
      </g>
     </g>
    </g>
    <g id="text_10">
     <!-- $x_j^l$ -->
     <g transform="translate(205.530398 303.190125) scale(0.1 -0.1)">
      <defs>
       <path id="DejaVuSans-Oblique-78" d="M 3841 3500 
L 2234 1784 
L 3219 0 
L 2559 0 
L 1819 1388 
L 531 0 
L -166 0 
L 1556 1844 
L 641 3500 
L 1300 3500 
L 1972 2234 
L 3144 3500 
L 3841 3500 
z
" transform="scale(0.015625)"/>
       <path id="DejaVuSans-Oblique-6c" d="M 1172 4863 
L 1747 4863 
L 800 0 
L 225 0 
L 1172 4863 
z
" transform="scale(0.015625)"/>
       <path id="DejaVuSans-Oblique-6a" d="M 928 3500 
L 1503 3500 
L 813 -63 
L 809 -78 
Q 694 -675 544 -897 
Q 403 -1106 132 -1218 
Q -138 -1331 -506 -1331 
L -722 -1331 
L -628 -844 
L -481 -844 
Q -144 -844 -1 -703 
Q 141 -563 238 -63 
L 928 3500 
z
M 1197 4863 
L 1772 4863 
L 1631 4134 
L 1056 4134 
L 1197 4863 
z
" transform="scale(0.015625)"/>
      </defs>
      <use xlink:href="#DejaVuSans-Oblique-78" transform="translate(0 0.465625)"/>
      <use xlink:href="#DejaVuSans-Oblique-6c" transform="translate(63.645833 38.810938) scale(0.7)"/>
      <use xlink:href="#DejaVuSans-Oblique-6a" transform="translate(59.179688 -26.878125) scale(0.7)"/>
     </g>
    </g>
   </g>
   <g id="matplotlib.axis_2">
    <g id="ytick_1">
     <g id="line2d_19">
      <path d="M 47.503125 261.216 
L 372.15767 261.216 
" clip-path="url(#p26fa93a450)" style="fill: none; stroke: #b0b0b0; stroke-width: 0.8; stroke-linecap: square"/>
     </g>
     <g id="line2d_20">
      <defs>
       <path id="m1d6a6a9ffa" d="M 0 0 
L -3.5 0 
" style="stroke: #000000; stroke-width: 0.8"/>
      </defs>
      <g>
       <use xlink:href="#m1d6a6a9ffa" x="47.503125" y="261.216" style="stroke: #000000; stroke-width: 0.8"/>
      </g>
     </g>
     <g id="text_11">
      <!-- 0.0 -->
      <g transform="translate(24.6 265.015219) scale(0.1 -0.1)">
       <use xlink:href="#DejaVuSans-30"/>
       <use xlink:href="#DejaVuSans-2e" x="63.623047"/>
       <use xlink:href="#DejaVuSans-30" x="95.410156"/>
      </g>
     </g>
    </g>
    <g id="ytick_2">
     <g id="line2d_21">
      <path d="M 47.503125 212.832 
L 372.15767 212.832 
" clip-path="url(#p26fa93a450)" style="fill: none; stroke: #b0b0b0; stroke-width: 0.8; stroke-linecap: square"/>
     </g>
     <g id="line2d_22">
      <g>
       <use xlink:href="#m1d6a6a9ffa" x="47.503125" y="212.832" style="stroke: #000000; stroke-width: 0.8"/>
      </g>
     </g>
     <g id="text_12">
      <!-- 0.2 -->
      <g transform="translate(24.6 216.631219) scale(0.1 -0.1)">
       <use xlink:href="#DejaVuSans-30"/>
       <use xlink:href="#DejaVuSans-2e" x="63.623047"/>
       <use xlink:href="#DejaVuSans-32" x="95.410156"/>
      </g>
     </g>
    </g>
    <g id="ytick_3">
     <g id="line2d_23">
      <path d="M 47.503125 164.448 
L 372.15767 164.448 
" clip-path="url(#p26fa93a450)" style="fill: none; stroke: #b0b0b0; stroke-width: 0.8; stroke-linecap: square"/>
     </g>
     <g id="line2d_24">
      <g>
       <use xlink:href="#m1d6a6a9ffa" x="47.503125" y="164.448" style="stroke: #000000; stroke-width: 0.8"/>
      </g>
     </g>
     <g id="text_13">
      <!-- 0.4 -->
      <g transform="translate(24.6 168.247219) scale(0.1 -0.1)">
       <defs>
        <path id="DejaVuSans-34" d="M 2419 4116 
L 825 1625 
L 2419 1625 
L 2419 4116 
z
M 2253 4666 
L 3047 4666 
L 3047 1625 
L 3713 1625 
L 3713 1100 
L 3047 1100 
L 3047 0 
L 2419 0 
L 2419 1100 
L 313 1100 
L 313 1709 
L 2253 4666 
z
" transform="scale(0.015625)"/>
       </defs>
       <use xlink:href="#DejaVuSans-30"/>
       <use xlink:href="#DejaVuSans-2e" x="63.623047"/>
       <use xlink:href="#DejaVuSans-34" x="95.410156"/>
      </g>
     </g>
    </g>
    <g id="ytick_4">
     <g id="line2d_25">
      <path d="M 47.503125 116.064 
L 372.15767 116.064 
" clip-path="url(#p26fa93a450)" style="fill: none; stroke: #b0b0b0; stroke-width: 0.8; stroke-linecap: square"/>
     </g>
     <g id="line2d_26">
      <g>
       <use xlink:href="#m1d6a6a9ffa" x="47.503125" y="116.064" style="stroke: #000000; stroke-width: 0.8"/>
      </g>
     </g>
     <g id="text_14">
      <!-- 0.6 -->
      <g transform="translate(24.6 119.863219) scale(0.1 -0.1)">
       <defs>
        <path id="DejaVuSans-36" d="M 2113 2584 
Q 1688 2584 1439 2293 
Q 1191 2003 1191 1497 
Q 1191 994 1439 701 
Q 1688 409 2113 409 
Q 2538 409 2786 701 
Q 3034 994 3034 1497 
Q 3034 2003 2786 2293 
Q 2538 2584 2113 2584 
z
M 3366 4563 
L 3366 3988 
Q 3128 4100 2886 4159 
Q 2644 4219 2406 4219 
Q 1781 4219 1451 3797 
Q 1122 3375 1075 2522 
Q 1259 2794 1537 2939 
Q 1816 3084 2150 3084 
Q 2853 3084 3261 2657 
Q 3669 2231 3669 1497 
Q 3669 778 3244 343 
Q 2819 -91 2113 -91 
Q 1303 -91 875 529 
Q 447 1150 447 2328 
Q 447 3434 972 4092 
Q 1497 4750 2381 4750 
Q 2619 4750 2861 4703 
Q 3103 4656 3366 4563 
z
" transform="scale(0.015625)"/>
       </defs>
       <use xlink:href="#DejaVuSans-30"/>
       <use xlink:href="#DejaVuSans-2e" x="63.623047"/>
       <use xlink:href="#DejaVuSans-36" x="95.410156"/>
      </g>
     </g>
    </g>
    <g id="ytick_5">
     <g id="line2d_27">
      <path d="M 47.503125 67.68 
L 372.15767 67.68 
" clip-path="url(#p26fa93a450)" style="fill: none; stroke: #b0b0b0; stroke-width: 0.8; stroke-linecap: square"/>
     </g>
     <g id="line2d_28">
      <g>
       <use xlink:href="#m1d6a6a9ffa" x="47.503125" y="67.68" style="stroke: #000000; stroke-width: 0.8"/>
      </g>
     </g>
     <g id="text_15">
      <!-- 0.8 -->
      <g transform="translate(24.6 71.479219) scale(0.1 -0.1)">
       <defs>
        <path id="DejaVuSans-38" d="M 2034 2216 
Q 1584 2216 1326 1975 
Q 1069 1734 1069 1313 
Q 1069 891 1326 650 
Q 1584 409 2034 409 
Q 2484 409 2743 651 
Q 3003 894 3003 1313 
Q 3003 1734 2745 1975 
Q 2488 2216 2034 2216 
z
M 1403 2484 
Q 997 2584 770 2862 
Q 544 3141 544 3541 
Q 544 4100 942 4425 
Q 1341 4750 2034 4750 
Q 2731 4750 3128 4425 
Q 3525 4100 3525 3541 
Q 3525 3141 3298 2862 
Q 3072 2584 2669 2484 
Q 3125 2378 3379 2068 
Q 3634 1759 3634 1313 
Q 3634 634 3220 271 
Q 2806 -91 2034 -91 
Q 1263 -91 848 271 
Q 434 634 434 1313 
Q 434 1759 690 2068 
Q 947 2378 1403 2484 
z
M 1172 3481 
Q 1172 3119 1398 2916 
Q 1625 2713 2034 2713 
Q 2441 2713 2670 2916 
Q 2900 3119 2900 3481 
Q 2900 3844 2670 4047 
Q 2441 4250 2034 4250 
Q 1625 4250 1398 4047 
Q 1172 3844 1172 3481 
z
" transform="scale(0.015625)"/>
       </defs>
       <use xlink:href="#DejaVuSans-30"/>
       <use xlink:href="#DejaVuSans-2e" x="63.623047"/>
       <use xlink:href="#DejaVuSans-38" x="95.410156"/>
      </g>
     </g>
    </g>
    <g id="ytick_6">
     <g id="line2d_29">
      <path d="M 47.503125 19.296 
L 372.15767 19.296 
" clip-path="url(#p26fa93a450)" style="fill: none; stroke: #b0b0b0; stroke-width: 0.8; stroke-linecap: square"/>
     </g>
     <g id="line2d_30">
      <g>
       <use xlink:href="#m1d6a6a9ffa" x="47.503125" y="19.296" style="stroke: #000000; stroke-width: 0.8"/>
      </g>
     </g>
     <g id="text_16">
      <!-- 1.0 -->
      <g transform="translate(24.6 23.095219) scale(0.1 -0.1)">
       <use xlink:href="#DejaVuSans-31"/>
       <use xlink:href="#DejaVuSans-2e" x="63.623047"/>
       <use xlink:href="#DejaVuSans-30" x="95.410156"/>
      </g>
     </g>
    </g>
    <g id="text_17">
     <!-- $\kappa(0, x_j^l)$ -->
     <g transform="translate(16.4 157.156) rotate(-90) scale(0.1 -0.1)">
      <defs>
       <path id="DejaVuSans-Oblique-3ba" d="M 938 3500 
L 1531 3500 
L 1247 2047 
L 3041 3500 
L 3741 3500 
L 2106 2181 
L 3275 0 
L 2572 0 
L 1628 1806 
L 1122 1403 
L 850 0 
L 256 0 
L 938 3500 
z
" transform="scale(0.015625)"/>
       <path id="DejaVuSans-28" d="M 1984 4856 
Q 1566 4138 1362 3434 
Q 1159 2731 1159 2009 
Q 1159 1288 1364 580 
Q 1569 -128 1984 -844 
L 1484 -844 
Q 1016 -109 783 600 
Q 550 1309 550 2009 
Q 550 2706 781 3412 
Q 1013 4119 1484 4856 
L 1984 4856 
z
" transform="scale(0.015625)"/>
       <path id="DejaVuSans-2c" d="M 750 794 
L 1409 794 
L 1409 256 
L 897 -744 
L 494 -744 
L 750 256 
L 750 794 
z
" transform="scale(0.015625)"/>
       <path id="DejaVuSans-29" d="M 513 4856 
L 1013 4856 
Q 1481 4119 1714 3412 
Q 1947 2706 1947 2009 
Q 1947 1309 1714 600 
Q 1481 -109 1013 -844 
L 513 -844 
Q 928 -128 1133 580 
Q 1338 1288 1338 2009 
Q 1338 2731 1133 3434 
Q 928 4138 513 4856 
z
" transform="scale(0.015625)"/>
      </defs>
      <use xlink:href="#DejaVuSans-Oblique-3ba" transform="translate(0 0.465625)"/>
      <use xlink:href="#DejaVuSans-28" transform="translate(58.935547 0.465625)"/>
      <use xlink:href="#DejaVuSans-30" transform="translate(97.949219 0.465625)"/>
      <use xlink:href="#DejaVuSans-2c" transform="translate(161.572266 0.465625)"/>
      <use xlink:href="#DejaVuSans-Oblique-78" transform="translate(212.841797 0.465625)"/>
      <use xlink:href="#DejaVuSans-Oblique-6c" transform="translate(276.48763 38.810938) scale(0.7)"/>
      <use xlink:href="#DejaVuSans-Oblique-6a" transform="translate(272.021484 -26.878125) scale(0.7)"/>
      <use xlink:href="#DejaVuSans-29" transform="translate(298.670247 0.465625)"/>
     </g>
    </g>
   </g>
   <g id="line2d_31">
    <path d="M 62.26015 261.216 
L 180.909598 261.134845 
L 183.875835 260.84494 
L 185.358951 260.468778 
L 186.84207 259.770281 
L 188.325188 258.528512 
L 189.808307 256.416042 
L 191.291425 252.979237 
L 192.774542 247.63588 
L 194.25766 239.704083 
L 195.740779 228.475689 
L 197.223896 213.340354 
L 198.707014 193.953228 
L 200.190132 170.420752 
L 203.156368 114.484116 
L 204.639487 85.546028 
L 206.122605 59.147427 
L 207.605723 37.895698 
L 209.088841 24.086335 
L 210.57196 19.296 
L 212.055078 24.086335 
L 213.538196 37.895698 
L 215.021314 59.147427 
L 216.504432 85.546028 
L 220.953786 170.420737 
L 222.436905 193.953221 
L 223.920022 213.340343 
L 225.403141 228.475689 
L 226.886259 239.704083 
L 228.369377 247.63588 
L 229.852496 252.979242 
L 231.335614 256.416045 
L 232.818731 258.528512 
L 234.30185 259.770281 
L 235.784968 260.468778 
L 237.268086 260.844941 
L 240.234322 261.134845 
L 246.166795 261.213598 
L 357.400646 261.216 
L 357.400646 261.216 
" clip-path="url(#p26fa93a450)" style="fill: none; stroke: #1f77b4; stroke-width: 1.5; stroke-linecap: square"/>
   </g>
   <g id="line2d_32">
    <path d="M 62.26015 261.134845 
L 74.125097 260.938683 
L 81.540688 260.648544 
L 87.473169 260.238338 
L 91.922519 259.77028 
L 96.371869 259.1087 
L 100.821219 258.188289 
L 103.787459 257.391577 
L 106.753693 256.416042 
L 109.719926 255.230099 
L 112.686159 253.798762 
L 115.6524 252.083797 
L 118.618633 250.044041 
L 121.584874 247.635876 
L 124.551107 244.813941 
L 127.517348 241.531976 
L 130.483581 237.744029 
L 133.449821 233.405674 
L 136.416055 228.475689 
L 139.382295 222.917628 
L 142.348529 216.701848 
L 145.314762 209.807317 
L 148.280995 202.223702 
L 151.247236 193.953214 
L 154.213469 185.012534 
L 157.179709 175.434172 
L 160.145946 165.267923 
L 164.5953 149.069377 
L 169.044654 132.010119 
L 182.392716 79.978725 
L 185.358951 69.232954 
L 188.325188 59.147427 
L 191.291425 49.888904 
L 194.25766 41.616131 
L 197.223896 34.475293 
L 198.707014 31.370561 
L 200.190132 28.595791 
L 201.673251 26.163919 
L 203.156368 24.086335 
L 204.639487 22.372845 
L 206.122605 21.031567 
L 207.605723 20.068903 
L 209.088841 19.489453 
L 210.57196 19.296 
L 212.055078 19.489453 
L 213.538196 20.068903 
L 215.021314 21.031567 
L 216.504432 22.372845 
L 217.98755 24.086335 
L 219.470669 26.163919 
L 220.953786 28.595791 
L 222.436905 31.370561 
L 223.920022 34.475293 
L 225.403141 37.895698 
L 228.369377 45.619822 
L 231.335614 54.404633 
L 234.30185 64.097098 
L 237.268086 74.533915 
L 241.717438 91.214514 
L 249.133029 120.350265 
L 255.065503 143.46089 
L 259.514856 159.984778 
L 263.96421 175.434172 
L 266.930447 185.012513 
L 269.896684 193.953214 
L 272.862917 202.22368 
L 275.829157 209.807317 
L 278.795391 216.701848 
L 281.761631 222.917642 
L 284.727865 228.475689 
L 287.694098 233.405674 
L 290.660331 237.744019 
L 293.626572 241.531976 
L 296.592805 244.81393 
L 299.559045 247.635876 
L 302.525279 250.044038 
L 305.491519 252.083797 
L 308.457753 253.798757 
L 311.423993 255.230099 
L 314.390226 256.416042 
L 317.356467 257.391579 
L 320.3227 258.188289 
L 324.77205 259.1087 
L 329.221407 259.77028 
L 335.153874 260.360605 
L 341.086341 260.722677 
L 349.985055 261.010065 
L 357.400646 261.12084 
L 357.400646 261.12084 
" clip-path="url(#p26fa93a450)" style="fill: none; stroke: #ff7f0e; stroke-width: 1.5; stroke-linecap: square"/>
   </g>
   <g id="line2d_33">
    <path d="M 62.26015 228.475689 
L 66.709507 224.367784 
L 71.158864 219.893497 
L 75.608221 215.042441 
L 80.057564 209.807317 
L 84.506921 204.184307 
L 88.956278 198.173616 
L 93.405636 191.779877 
L 97.854986 185.012513 
L 102.304343 177.886123 
L 106.753693 170.420737 
L 112.686159 159.9848 
L 118.618633 149.069384 
L 126.034231 134.897419 
L 136.416055 114.484101 
L 148.280995 91.214529 
L 154.213469 79.978725 
L 160.145946 69.23294 
L 164.5953 61.597684 
L 169.044654 54.404633 
L 173.494007 47.722352 
L 176.460244 43.583665 
L 179.426481 39.719426 
L 182.392716 36.146981 
L 185.358951 32.882538 
L 188.325188 29.941093 
L 191.291425 27.336243 
L 194.25766 25.080188 
L 197.223896 23.183527 
L 200.190132 21.655241 
L 203.156368 20.502585 
L 206.122605 19.731067 
L 209.088841 19.344378 
L 212.055078 19.344378 
L 215.021314 19.731067 
L 217.98755 20.502585 
L 220.953786 21.655241 
L 223.920022 23.183527 
L 226.886259 25.080188 
L 229.852496 27.336243 
L 232.818731 29.941093 
L 235.784968 32.882538 
L 238.751205 36.146981 
L 241.717438 39.719426 
L 244.683675 43.583665 
L 247.649912 47.722352 
L 252.099266 54.404633 
L 256.548619 61.597684 
L 260.997973 69.23294 
L 266.930447 79.978725 
L 272.862917 91.214514 
L 281.761631 108.617995 
L 298.075922 140.624686 
L 305.491519 154.581504 
L 311.423993 165.267938 
L 317.356467 175.434186 
L 321.805817 182.676076 
L 326.255167 189.56499 
L 330.704531 196.08459 
L 335.153874 202.22368 
L 339.603231 207.976149 
L 344.052588 213.340346 
L 348.501946 218.318781 
L 352.951303 222.917642 
L 357.400646 227.146339 
L 357.400646 227.146339 
" clip-path="url(#p26fa93a450)" style="fill: none; stroke: #2ca02c; stroke-width: 1.5; stroke-linecap: square"/>
   </g>
   <g id="line2d_34"/>
   <g id="line2d_35"/>
   <g id="line2d_36"/>
   <g id="patch_3">
    <path d="M 47.503125 273.312 
L 47.503125 7.2 
" style="fill: none; stroke: #000000; stroke-width: 0.8; stroke-linejoin: miter; stroke-linecap: square"/>
   </g>
   <g id="patch_4">
    <path d="M 372.15767 273.312 
L 372.15767 7.2 
" style="fill: none; stroke: #000000; stroke-width: 0.8; stroke-linejoin: miter; stroke-linecap: square"/>
   </g>
   <g id="patch_5">
    <path d="M 47.503125 273.312 
L 372.15767 273.312 
" style="fill: none; stroke: #000000; stroke-width: 0.8; stroke-linejoin: miter; stroke-linecap: square"/>
   </g>
   <g id="patch_6">
    <path d="M 47.503125 7.2 
L 372.15767 7.2 
" style="fill: none; stroke: #000000; stroke-width: 0.8; stroke-linejoin: miter; stroke-linecap: square"/>
   </g>
  </g>
  <g id="axes_2">
   <g id="patch_7">
    <path d="M 437.08858 273.312 
L 761.743125 273.312 
L 761.743125 7.2 
L 437.08858 7.2 
z
" style="fill: #ffffff"/>
   </g>
   <g id="PolyCollection_4"/>
   <g id="PolyCollection_5"/>
   <g id="PolyCollection_6"/>
   <g id="matplotlib.axis_3">
    <g id="xtick_10">
     <g id="line2d_37">
      <path d="M 451.845604 273.312 
L 451.845604 7.2 
" clip-path="url(#p82ef87e0a9)" style="fill: none; stroke: #b0b0b0; stroke-width: 0.8; stroke-linecap: square"/>
     </g>
     <g id="line2d_38">
      <g>
       <use xlink:href="#mca4d35a38b" x="451.845604" y="273.312" style="stroke: #000000; stroke-width: 0.8"/>
      </g>
     </g>
     <g id="text_18">
      <!-- −10.0 -->
      <g transform="translate(436.522948 287.910437) scale(0.1 -0.1)">
       <use xlink:href="#DejaVuSans-2212"/>
       <use xlink:href="#DejaVuSans-31" x="83.789062"/>
       <use xlink:href="#DejaVuSans-30" x="147.412109"/>
       <use xlink:href="#DejaVuSans-2e" x="211.035156"/>
       <use xlink:href="#DejaVuSans-30" x="242.822266"/>
      </g>
     </g>
    </g>
    <g id="xtick_11">
     <g id="line2d_39">
      <path d="M 488.923557 273.312 
L 488.923557 7.2 
" clip-path="url(#p82ef87e0a9)" style="fill: none; stroke: #b0b0b0; stroke-width: 0.8; stroke-linecap: square"/>
     </g>
     <g id="line2d_40">
      <g>
       <use xlink:href="#mca4d35a38b" x="488.923557" y="273.312" style="stroke: #000000; stroke-width: 0.8"/>
      </g>
     </g>
     <g id="text_19">
      <!-- −7.5 -->
      <g transform="translate(476.782151 287.910437) scale(0.1 -0.1)">
       <use xlink:href="#DejaVuSans-2212"/>
       <use xlink:href="#DejaVuSans-37" x="83.789062"/>
       <use xlink:href="#DejaVuSans-2e" x="147.412109"/>
       <use xlink:href="#DejaVuSans-35" x="179.199219"/>
      </g>
     </g>
    </g>
    <g id="xtick_12">
     <g id="line2d_41">
      <path d="M 526.001509 273.312 
L 526.001509 7.2 
" clip-path="url(#p82ef87e0a9)" style="fill: none; stroke: #b0b0b0; stroke-width: 0.8; stroke-linecap: square"/>
     </g>
     <g id="line2d_42">
      <g>
       <use xlink:href="#mca4d35a38b" x="526.001509" y="273.312" style="stroke: #000000; stroke-width: 0.8"/>
      </g>
     </g>
     <g id="text_20">
      <!-- −5.0 -->
      <g transform="translate(513.860103 287.910437) scale(0.1 -0.1)">
       <use xlink:href="#DejaVuSans-2212"/>
       <use xlink:href="#DejaVuSans-35" x="83.789062"/>
       <use xlink:href="#DejaVuSans-2e" x="147.412109"/>
       <use xlink:href="#DejaVuSans-30" x="179.199219"/>
      </g>
     </g>
    </g>
    <g id="xtick_13">
     <g id="line2d_43">
      <path d="M 563.079462 273.312 
L 563.079462 7.2 
" clip-path="url(#p82ef87e0a9)" style="fill: none; stroke: #b0b0b0; stroke-width: 0.8; stroke-linecap: square"/>
     </g>
     <g id="line2d_44">
      <g>
       <use xlink:href="#mca4d35a38b" x="563.079462" y="273.312" style="stroke: #000000; stroke-width: 0.8"/>
      </g>
     </g>
     <g id="text_21">
      <!-- −2.5 -->
      <g transform="translate(550.938055 287.910437) scale(0.1 -0.1)">
       <use xlink:href="#DejaVuSans-2212"/>
       <use xlink:href="#DejaVuSans-32" x="83.789062"/>
       <use xlink:href="#DejaVuSans-2e" x="147.412109"/>
       <use xlink:href="#DejaVuSans-35" x="179.199219"/>
      </g>
     </g>
    </g>
    <g id="xtick_14">
     <g id="line2d_45">
      <path d="M 600.157414 273.312 
L 600.157414 7.2 
" clip-path="url(#p82ef87e0a9)" style="fill: none; stroke: #b0b0b0; stroke-width: 0.8; stroke-linecap: square"/>
     </g>
     <g id="line2d_46">
      <g>
       <use xlink:href="#mca4d35a38b" x="600.157414" y="273.312" style="stroke: #000000; stroke-width: 0.8"/>
      </g>
     </g>
     <g id="text_22">
      <!-- 0.0 -->
      <g transform="translate(592.205852 287.910437) scale(0.1 -0.1)">
       <use xlink:href="#DejaVuSans-30"/>
       <use xlink:href="#DejaVuSans-2e" x="63.623047"/>
       <use xlink:href="#DejaVuSans-30" x="95.410156"/>
      </g>
     </g>
    </g>
    <g id="xtick_15">
     <g id="line2d_47">
      <path d="M 637.235367 273.312 
L 637.235367 7.2 
" clip-path="url(#p82ef87e0a9)" style="fill: none; stroke: #b0b0b0; stroke-width: 0.8; stroke-linecap: square"/>
     </g>
     <g id="line2d_48">
      <g>
       <use xlink:href="#mca4d35a38b" x="637.235367" y="273.312" style="stroke: #000000; stroke-width: 0.8"/>
      </g>
     </g>
     <g id="text_23">
      <!-- 2.5 -->
      <g transform="translate(629.283804 287.910437) scale(0.1 -0.1)">
       <use xlink:href="#DejaVuSans-32"/>
       <use xlink:href="#DejaVuSans-2e" x="63.623047"/>
       <use xlink:href="#DejaVuSans-35" x="95.410156"/>
      </g>
     </g>
    </g>
    <g id="xtick_16">
     <g id="line2d_49">
      <path d="M 674.313319 273.312 
L 674.313319 7.2 
" clip-path="url(#p82ef87e0a9)" style="fill: none; stroke: #b0b0b0; stroke-width: 0.8; stroke-linecap: square"/>
     </g>
     <g id="line2d_50">
      <g>
       <use xlink:href="#mca4d35a38b" x="674.313319" y="273.312" style="stroke: #000000; stroke-width: 0.8"/>
      </g>
     </g>
     <g id="text_24">
      <!-- 5.0 -->
      <g transform="translate(666.361757 287.910437) scale(0.1 -0.1)">
       <use xlink:href="#DejaVuSans-35"/>
       <use xlink:href="#DejaVuSans-2e" x="63.623047"/>
       <use xlink:href="#DejaVuSans-30" x="95.410156"/>
      </g>
     </g>
    </g>
    <g id="xtick_17">
     <g id="line2d_51">
      <path d="M 711.391272 273.312 
L 711.391272 7.2 
" clip-path="url(#p82ef87e0a9)" style="fill: none; stroke: #b0b0b0; stroke-width: 0.8; stroke-linecap: square"/>
     </g>
     <g id="line2d_52">
      <g>
       <use xlink:href="#mca4d35a38b" x="711.391272" y="273.312" style="stroke: #000000; stroke-width: 0.8"/>
      </g>
     </g>
     <g id="text_25">
      <!-- 7.5 -->
      <g transform="translate(703.439709 287.910437) scale(0.1 -0.1)">
       <use xlink:href="#DejaVuSans-37"/>
       <use xlink:href="#DejaVuSans-2e" x="63.623047"/>
       <use xlink:href="#DejaVuSans-35" x="95.410156"/>
      </g>
     </g>
    </g>
    <g id="xtick_18">
     <g id="line2d_53">
      <path d="M 748.469224 273.312 
L 748.469224 7.2 
" clip-path="url(#p82ef87e0a9)" style="fill: none; stroke: #b0b0b0; stroke-width: 0.8; stroke-linecap: square"/>
     </g>
     <g id="line2d_54">
      <g>
       <use xlink:href="#mca4d35a38b" x="748.469224" y="273.312" style="stroke: #000000; stroke-width: 0.8"/>
      </g>
     </g>
     <g id="text_26">
      <!-- 10.0 -->
      <g transform="translate(737.336411 287.910437) scale(0.1 -0.1)">
       <use xlink:href="#DejaVuSans-31"/>
       <use xlink:href="#DejaVuSans-30" x="63.623047"/>
       <use xlink:href="#DejaVuSans-2e" x="127.246094"/>
       <use xlink:href="#DejaVuSans-30" x="159.033203"/>
      </g>
     </g>
    </g>
    <g id="text_27">
     <!-- $x_j^l$ -->
     <g transform="translate(595.115852 303.190125) scale(0.1 -0.1)">
      <use xlink:href="#DejaVuSans-Oblique-78" transform="translate(0 0.465625)"/>
      <use xlink:href="#DejaVuSans-Oblique-6c" transform="translate(63.645833 38.810938) scale(0.7)"/>
      <use xlink:href="#DejaVuSans-Oblique-6a" transform="translate(59.179688 -26.878125) scale(0.7)"/>
     </g>
    </g>
   </g>
   <g id="matplotlib.axis_4">
    <g id="ytick_7">
     <g id="line2d_55">
      <path d="M 437.08858 239.970661 
L 761.743125 239.970661 
" clip-path="url(#p82ef87e0a9)" style="fill: none; stroke: #b0b0b0; stroke-width: 0.8; stroke-linecap: square"/>
     </g>
     <g id="line2d_56">
      <g>
       <use xlink:href="#m1d6a6a9ffa" x="437.08858" y="239.970661" style="stroke: #000000; stroke-width: 0.8"/>
      </g>
     </g>
     <g id="text_28">
      <!-- −1.0 -->
      <g transform="translate(405.805767 243.76988) scale(0.1 -0.1)">
       <use xlink:href="#DejaVuSans-2212"/>
       <use xlink:href="#DejaVuSans-31" x="83.789062"/>
       <use xlink:href="#DejaVuSans-2e" x="147.412109"/>
       <use xlink:href="#DejaVuSans-30" x="179.199219"/>
      </g>
     </g>
    </g>
    <g id="ytick_8">
     <g id="line2d_57">
      <path d="M 437.08858 190.113331 
L 761.743125 190.113331 
" clip-path="url(#p82ef87e0a9)" style="fill: none; stroke: #b0b0b0; stroke-width: 0.8; stroke-linecap: square"/>
     </g>
     <g id="line2d_58">
      <g>
       <use xlink:href="#m1d6a6a9ffa" x="437.08858" y="190.113331" style="stroke: #000000; stroke-width: 0.8"/>
      </g>
     </g>
     <g id="text_29">
      <!-- −0.5 -->
      <g transform="translate(405.805767 193.912549) scale(0.1 -0.1)">
       <use xlink:href="#DejaVuSans-2212"/>
       <use xlink:href="#DejaVuSans-30" x="83.789062"/>
       <use xlink:href="#DejaVuSans-2e" x="147.412109"/>
       <use xlink:href="#DejaVuSans-35" x="179.199219"/>
      </g>
     </g>
    </g>
    <g id="ytick_9">
     <g id="line2d_59">
      <path d="M 437.08858 140.256 
L 761.743125 140.256 
" clip-path="url(#p82ef87e0a9)" style="fill: none; stroke: #b0b0b0; stroke-width: 0.8; stroke-linecap: square"/>
     </g>
     <g id="line2d_60">
      <g>
       <use xlink:href="#m1d6a6a9ffa" x="437.08858" y="140.256" style="stroke: #000000; stroke-width: 0.8"/>
      </g>
     </g>
     <g id="text_30">
      <!-- 0.0 -->
      <g transform="translate(414.185455 144.055219) scale(0.1 -0.1)">
       <use xlink:href="#DejaVuSans-30"/>
       <use xlink:href="#DejaVuSans-2e" x="63.623047"/>
       <use xlink:href="#DejaVuSans-30" x="95.410156"/>
      </g>
     </g>
    </g>
    <g id="ytick_10">
     <g id="line2d_61">
      <path d="M 437.08858 90.398669 
L 761.743125 90.398669 
" clip-path="url(#p82ef87e0a9)" style="fill: none; stroke: #b0b0b0; stroke-width: 0.8; stroke-linecap: square"/>
     </g>
     <g id="line2d_62">
      <g>
       <use xlink:href="#m1d6a6a9ffa" x="437.08858" y="90.398669" style="stroke: #000000; stroke-width: 0.8"/>
      </g>
     </g>
     <g id="text_31">
      <!-- 0.5 -->
      <g transform="translate(414.185455 94.197888) scale(0.1 -0.1)">
       <use xlink:href="#DejaVuSans-30"/>
       <use xlink:href="#DejaVuSans-2e" x="63.623047"/>
       <use xlink:href="#DejaVuSans-35" x="95.410156"/>
      </g>
     </g>
    </g>
    <g id="ytick_11">
     <g id="line2d_63">
      <path d="M 437.08858 40.541339 
L 761.743125 40.541339 
" clip-path="url(#p82ef87e0a9)" style="fill: none; stroke: #b0b0b0; stroke-width: 0.8; stroke-linecap: square"/>
     </g>
     <g id="line2d_64">
      <g>
       <use xlink:href="#m1d6a6a9ffa" x="437.08858" y="40.541339" style="stroke: #000000; stroke-width: 0.8"/>
      </g>
     </g>
     <g id="text_32">
      <!-- 1.0 -->
      <g transform="translate(414.185455 44.340557) scale(0.1 -0.1)">
       <use xlink:href="#DejaVuSans-31"/>
       <use xlink:href="#DejaVuSans-2e" x="63.623047"/>
       <use xlink:href="#DejaVuSans-30" x="95.410156"/>
      </g>
     </g>
    </g>
    <g id="text_33">
     <!-- $\nabla_{x_j^l} \kappa(0, x_j^l)$ -->
     <g transform="translate(397.205767 163.706) rotate(-90) scale(0.1 -0.1)">
      <defs>
       <path id="DejaVuSans-2207" d="M 2138 659 
L 3444 4047 
L 831 4047 
L 2138 659 
z
M 1791 0 
L -19 4603 
L 4300 4603 
L 2491 0 
L 1791 0 
z
" transform="scale(0.015625)"/>
      </defs>
      <use xlink:href="#DejaVuSans-2207" transform="translate(0 0.465625)"/>
      <use xlink:href="#DejaVuSans-Oblique-78" transform="translate(67.851562 -15.940625) scale(0.7)"/>
      <use xlink:href="#DejaVuSans-Oblique-6c" transform="translate(112.403646 10.901094) scale(0.49)"/>
      <use xlink:href="#DejaVuSans-Oblique-6a" transform="translate(109.277344 -35.08125) scale(0.49)"/>
      <use xlink:href="#DejaVuSans-Oblique-3ba" transform="translate(130.665853 0.465625)"/>
      <use xlink:href="#DejaVuSans-28" transform="translate(189.6014 0.465625)"/>
      <use xlink:href="#DejaVuSans-30" transform="translate(228.615072 0.465625)"/>
      <use xlink:href="#DejaVuSans-2c" transform="translate(292.238118 0.465625)"/>
      <use xlink:href="#DejaVuSans-Oblique-78" transform="translate(343.50765 0.465625)"/>
      <use xlink:href="#DejaVuSans-Oblique-6c" transform="translate(407.153483 38.810938) scale(0.7)"/>
      <use xlink:href="#DejaVuSans-Oblique-6a" transform="translate(402.687337 -26.878125) scale(0.7)"/>
      <use xlink:href="#DejaVuSans-29" transform="translate(429.3361 0.465625)"/>
     </g>
    </g>
   </g>
   <g id="line2d_65">
    <path d="M 451.845604 140.256 
L 567.528815 140.201138 
L 570.495052 139.988396 
L 571.978171 139.701417 
L 573.461289 139.154807 
L 574.944406 138.161667 
L 576.427524 136.44226 
L 577.910643 133.609621 
L 579.393761 129.17669 
L 580.87688 122.601836 
L 582.359996 113.388199 
L 583.843115 101.242129 
L 585.326233 86.276353 
L 589.775587 35.468753 
L 591.258705 23.768796 
L 592.741823 19.296 
L 594.224942 24.403676 
L 595.70806 40.309568 
L 597.191178 66.617412 
L 598.674296 101.159925 
L 601.640532 179.352069 
L 603.12365 213.894582 
L 604.606768 240.202421 
L 606.089887 256.108324 
L 607.573005 261.216 
L 609.056123 256.743204 
L 610.539241 245.043259 
L 612.022359 228.974059 
L 614.988595 194.235647 
L 616.471714 179.269871 
L 617.954832 167.123801 
L 619.43795 157.910153 
L 620.921069 151.335304 
L 622.404186 146.902379 
L 623.887304 144.06974 
L 625.370423 142.350333 
L 626.853541 141.357192 
L 628.336659 140.810582 
L 629.819776 140.523604 
L 632.786013 140.310862 
L 640.201604 140.256501 
L 746.9861 140.256 
L 746.9861 140.256 
" clip-path="url(#p82ef87e0a9)" style="fill: none; stroke: #1f77b4; stroke-width: 1.5; stroke-linecap: square"/>
   </g>
   <g id="line2d_66">
    <path d="M 451.845604 140.202479 
L 468.159909 140.004677 
L 478.541733 139.652696 
L 485.957323 139.1859 
L 491.889797 138.616476 
L 497.822264 137.81489 
L 502.271614 137.027555 
L 506.720971 136.056016 
L 511.170328 134.882439 
L 515.619685 133.496171 
L 520.069035 131.897073 
L 524.518393 130.098911 
L 530.450866 127.447694 
L 546.765164 119.890034 
L 551.214518 118.224929 
L 554.180755 117.328586 
L 557.146991 116.646666 
L 560.113225 116.214465 
L 563.079462 116.063999 
L 566.045699 116.2227 
L 569.011936 116.712056 
L 571.978171 117.546461 
L 574.944406 118.732196 
L 577.910643 120.266714 
L 580.87688 122.138189 
L 583.843115 124.325405 
L 586.809351 126.798039 
L 589.775587 129.517275 
L 594.224942 133.955427 
L 601.640532 141.850159 
L 607.573005 148.075214 
L 612.022359 152.382435 
L 614.988595 154.983717 
L 617.954832 157.317984 
L 620.921069 159.350562 
L 623.887304 161.055625 
L 626.853541 162.416644 
L 629.819776 163.426464 
L 632.786013 164.087034 
L 635.75225 164.408792 
L 638.718483 164.409826 
L 641.68472 164.114741 
L 644.650957 163.553442 
L 647.617194 162.759751 
L 650.583427 161.77006 
L 655.032781 160.000287 
L 660.965255 157.302047 
L 674.313319 151.051929 
L 680.245786 148.61493 
L 684.695143 147.015829 
L 689.1445 145.629561 
L 693.593857 144.455984 
L 698.043207 143.484447 
L 702.492564 142.69711 
L 708.425038 141.895524 
L 714.357505 141.3261 
L 721.773095 140.859304 
L 730.671795 140.5423 
L 742.536757 140.352202 
L 746.9861 140.31813 
L 746.9861 140.31813 
" clip-path="url(#p82ef87e0a9)" style="fill: none; stroke: #ff7f0e; stroke-width: 1.5; stroke-linecap: square"/>
   </g>
   <g id="line2d_67">
    <path d="M 451.845604 134.858035 
L 469.643019 132.797244 
L 491.889797 130.226696 
L 502.271614 129.240466 
L 511.170328 128.607279 
L 518.585919 128.276642 
L 526.001509 128.16 
L 533.4171 128.284674 
L 540.83269 128.670768 
L 548.248281 129.329403 
L 555.663871 130.261357 
L 563.079462 131.456213 
L 570.495052 132.892142 
L 577.910643 134.536383 
L 586.809351 136.723957 
L 601.640532 140.654779 
L 616.471714 144.538543 
L 625.370423 146.65579 
L 632.786013 148.221298 
L 640.201604 149.564134 
L 647.617194 150.655813 
L 655.032781 151.479051 
L 662.448371 152.027972 
L 669.863969 152.307623 
L 677.279552 152.332913 
L 684.695143 152.127055 
L 692.110733 151.719707 
L 701.009448 151.013029 
L 711.391272 149.967783 
L 727.705562 148.070643 
L 746.9861 145.816966 
L 746.9861 145.816966 
" clip-path="url(#p82ef87e0a9)" style="fill: none; stroke: #2ca02c; stroke-width: 1.5; stroke-linecap: square"/>
   </g>
   <g id="line2d_68"/>
   <g id="line2d_69"/>
   <g id="line2d_70"/>
   <g id="patch_8">
    <path d="M 437.08858 273.312 
L 437.08858 7.2 
" style="fill: none; stroke: #000000; stroke-width: 0.8; stroke-linejoin: miter; stroke-linecap: square"/>
   </g>
   <g id="patch_9">
    <path d="M 761.743125 273.312 
L 761.743125 7.2 
" style="fill: none; stroke: #000000; stroke-width: 0.8; stroke-linejoin: miter; stroke-linecap: square"/>
   </g>
   <g id="patch_10">
    <path d="M 437.08858 273.312 
L 761.743125 273.312 
" style="fill: none; stroke: #000000; stroke-width: 0.8; stroke-linejoin: miter; stroke-linecap: square"/>
   </g>
   <g id="patch_11">
    <path d="M 437.08858 7.2 
L 761.743125 7.2 
" style="fill: none; stroke: #000000; stroke-width: 0.8; stroke-linejoin: miter; stroke-linecap: square"/>
   </g>
  </g>
  <g id="legend_1">
   <g id="patch_12">
    <path d="M 286.075125 64.408 
L 352.675125 64.408 
Q 354.675125 64.408 354.675125 62.408 
L 354.675125 19.373625 
Q 354.675125 17.373625 352.675125 17.373625 
L 286.075125 17.373625 
Q 284.075125 17.373625 284.075125 19.373625 
L 284.075125 62.408 
Q 284.075125 64.408 286.075125 64.408 
z
" style="fill: #ffffff; stroke: #cccccc; stroke-linejoin: miter"/>
   </g>
   <g id="line2d_71">
    <path d="M 288.075125 25.472062 
L 298.075125 25.472062 
L 308.075125 25.472062 
" style="fill: none; stroke: #1f77b4; stroke-width: 1.5; stroke-linecap: square"/>
   </g>
   <g id="text_34">
    <!-- $\sigma = 0.5$ -->
    <g transform="translate(316.075125 28.972062) scale(0.1 -0.1)">
     <defs>
      <path id="DejaVuSans-Oblique-3c3" d="M 2219 3044 
Q 1744 3044 1422 2700 
Q 1081 2341 969 1747 
Q 844 1119 1044 756 
Q 1241 397 1706 397 
Q 2166 397 2503 759 
Q 2844 1122 2966 1747 
Q 3075 2319 2881 2700 
Q 2700 3044 2219 3044 
z
M 2309 3503 
L 4219 3500 
L 4106 2925 
L 3463 2925 
Q 3706 2438 3575 1747 
Q 3406 888 2884 400 
Q 2359 -91 1609 -91 
Q 856 -91 525 400 
Q 194 888 363 1747 
Q 528 2609 1050 3097 
Q 1484 3503 2309 3503 
z
" transform="scale(0.015625)"/>
      <path id="DejaVuSans-3d" d="M 678 2906 
L 4684 2906 
L 4684 2381 
L 678 2381 
L 678 2906 
z
M 678 1631 
L 4684 1631 
L 4684 1100 
L 678 1100 
L 678 1631 
z
" transform="scale(0.015625)"/>
     </defs>
     <use xlink:href="#DejaVuSans-Oblique-3c3" transform="translate(0 0.78125)"/>
     <use xlink:href="#DejaVuSans-3d" transform="translate(82.861328 0.78125)"/>
     <use xlink:href="#DejaVuSans-30" transform="translate(186.132812 0.78125)"/>
     <use xlink:href="#DejaVuSans-2e" transform="translate(249.755859 0.78125)"/>
     <use xlink:href="#DejaVuSans-35" transform="translate(281.542969 0.78125)"/>
    </g>
   </g>
   <g id="line2d_72">
    <path d="M 288.075125 40.150188 
L 298.075125 40.150188 
L 308.075125 40.150188 
" style="fill: none; stroke: #ff7f0e; stroke-width: 1.5; stroke-linecap: square"/>
   </g>
   <g id="text_35">
    <!-- $\sigma = 2.5$ -->
    <g transform="translate(316.075125 43.650188) scale(0.1 -0.1)">
     <use xlink:href="#DejaVuSans-Oblique-3c3" transform="translate(0 0.78125)"/>
     <use xlink:href="#DejaVuSans-3d" transform="translate(82.861328 0.78125)"/>
     <use xlink:href="#DejaVuSans-32" transform="translate(186.132812 0.78125)"/>
     <use xlink:href="#DejaVuSans-2e" transform="translate(249.755859 0.78125)"/>
     <use xlink:href="#DejaVuSans-35" transform="translate(281.542969 0.78125)"/>
    </g>
   </g>
   <g id="line2d_73">
    <path d="M 288.075125 54.828312 
L 298.075125 54.828312 
L 308.075125 54.828312 
" style="fill: none; stroke: #2ca02c; stroke-width: 1.5; stroke-linecap: square"/>
   </g>
   <g id="text_36">
    <!-- $\sigma = 5.0$ -->
    <g transform="translate(316.075125 58.328312) scale(0.1 -0.1)">
     <use xlink:href="#DejaVuSans-Oblique-3c3" transform="translate(0 0.78125)"/>
     <use xlink:href="#DejaVuSans-3d" transform="translate(82.861328 0.78125)"/>
     <use xlink:href="#DejaVuSans-35" transform="translate(186.132812 0.78125)"/>
     <use xlink:href="#DejaVuSans-2e" transform="translate(249.755859 0.78125)"/>
     <use xlink:href="#DejaVuSans-30" transform="translate(281.542969 0.78125)"/>
    </g>
   </g>
  </g>
 </g>
 <defs>
  <clipPath id="p26fa93a450">
   <rect x="47.503125" y="7.2" width="324.654545" height="266.112"/>
  </clipPath>
  <clipPath id="p82ef87e0a9">
   <rect x="437.08858" y="7.2" width="324.654545" height="266.112"/>
  </clipPath>
 </defs>
</svg>
